# MagicaVoxel @ Ephtracy

# material
mtllib tottero.mtl
usemtl palette

# normals
vn -1 0 0
vn 1 0 0
vn 0 0 1
vn 0 0 -1
vn 0 -1 0
vn 0 1 0

# texcoords
vt 0.00195313 0.5
vt 0.0683594 0.5

# verts
v -4 0 4
v -4 0 -4
v -4 2 4
v -4 2 -4
v -3 2 3
v -3 2 -3
v -3 3 3
v -3 3 -3
v -3 4 3
v -3 4 -3
v -3 5 3
v -3 5 -3
v -2 5 2
v -2 5 -2
v -2 6 2
v -2 6 -2
v -2 7 2
v -2 7 -2
v -2 8 2
v -2 8 -2
v -1 8 1
v -1 8 -1
v -1 9 1
v -1 9 -1
v -1 10 1
v -1 10 -1
v -1 12 1
v -1 12 -1
v 1 8 1
v 1 8 -1
v 1 9 1
v 1 9 -1
v 1 10 1
v 1 10 -1
v 1 12 1
v 1 12 -1
v 2 5 2
v 2 5 -2
v 2 6 2
v 2 6 -2
v 2 7 2
v 2 7 -2
v 2 8 2
v 2 8 -2
v 3 2 3
v 3 2 -3
v 3 3 3
v 3 3 -3
v 3 4 3
v 3 4 -3
v 3 5 3
v 3 5 -3
v 4 0 4
v 4 0 -4
v 4 2 4
v 4 2 -4
v -4 0 4
v -4 2 4
v 4 0 4
v 4 2 4
v -3 2 3
v -3 3 3
v -3 4 3
v -3 5 3
v 3 2 3
v 3 3 3
v 3 4 3
v 3 5 3
v -2 5 2
v -2 6 2
v -2 7 2
v -2 8 2
v 2 5 2
v 2 6 2
v 2 7 2
v 2 8 2
v -1 8 1
v -1 9 1
v -1 10 1
v -1 12 1
v 1 8 1
v 1 9 1
v 1 10 1
v 1 12 1
v -1 8 -1
v -1 9 -1
v -1 10 -1
v -1 12 -1
v 1 8 -1
v 1 9 -1
v 1 10 -1
v 1 12 -1
v -2 5 -2
v -2 6 -2
v -2 7 -2
v -2 8 -2
v 2 5 -2
v 2 6 -2
v 2 7 -2
v 2 8 -2
v -3 2 -3
v -3 3 -3
v -3 4 -3
v -3 5 -3
v 3 2 -3
v 3 3 -3
v 3 4 -3
v 3 5 -3
v -4 0 -4
v -4 2 -4
v 4 0 -4
v 4 2 -4
v -4 0 4
v 4 0 4
v -4 0 -4
v 4 0 -4
v -4 2 4
v 4 2 4
v -3 2 3
v 3 2 3
v -3 2 -3
v 3 2 -3
v -4 2 -4
v 4 2 -4
v -3 5 3
v 3 5 3
v -2 5 2
v 2 5 2
v -2 5 -2
v 2 5 -2
v -3 5 -3
v 3 5 -3
v -2 8 2
v 2 8 2
v -1 8 1
v 1 8 1
v -1 8 -1
v 1 8 -1
v -2 8 -2
v 2 8 -2
v -1 12 1
v 1 12 1
v -1 12 -1
v 1 12 -1

# faces
f 3/2/1 2/2/1 1/2/1
f 4/2/1 2/2/1 3/2/1
f 7/2/1 6/2/1 5/2/1
f 8/2/1 6/2/1 7/2/1
f 9/1/1 8/1/1 7/1/1
f 10/1/1 8/1/1 9/1/1
f 11/2/1 10/2/1 9/2/1
f 12/2/1 10/2/1 11/2/1
f 15/2/1 14/2/1 13/2/1
f 16/2/1 14/2/1 15/2/1
f 17/1/1 16/1/1 15/1/1
f 18/1/1 16/1/1 17/1/1
f 19/2/1 18/2/1 17/2/1
f 20/2/1 18/2/1 19/2/1
f 23/2/1 22/2/1 21/2/1
f 24/2/1 22/2/1 23/2/1
f 25/1/1 24/1/1 23/1/1
f 26/1/1 24/1/1 25/1/1
f 27/2/1 26/2/1 25/2/1
f 28/2/1 26/2/1 27/2/1
f 29/2/2 30/2/2 31/2/2
f 31/2/2 30/2/2 32/2/2
f 31/1/2 32/1/2 33/1/2
f 33/1/2 32/1/2 34/1/2
f 33/2/2 34/2/2 35/2/2
f 35/2/2 34/2/2 36/2/2
f 37/2/2 38/2/2 39/2/2
f 39/2/2 38/2/2 40/2/2
f 39/1/2 40/1/2 41/1/2
f 41/1/2 40/1/2 42/1/2
f 41/2/2 42/2/2 43/2/2
f 43/2/2 42/2/2 44/2/2
f 45/2/2 46/2/2 47/2/2
f 47/2/2 46/2/2 48/2/2
f 47/1/2 48/1/2 49/1/2
f 49/1/2 48/1/2 50/1/2
f 49/2/2 50/2/2 51/2/2
f 51/2/2 50/2/2 52/2/2
f 53/2/2 54/2/2 55/2/2
f 55/2/2 54/2/2 56/2/2
f 59/2/3 58/2/3 57/2/3
f 60/2/3 58/2/3 59/2/3
f 65/2/3 62/2/3 61/2/3
f 66/1/3 63/1/3 62/1/3
f 66/2/3 62/2/3 65/2/3
f 67/2/3 64/2/3 63/2/3
f 67/1/3 63/1/3 66/1/3
f 68/2/3 64/2/3 67/2/3
f 73/2/3 70/2/3 69/2/3
f 74/1/3 71/1/3 70/1/3
f 74/2/3 70/2/3 73/2/3
f 75/2/3 72/2/3 71/2/3
f 75/1/3 71/1/3 74/1/3
f 76/2/3 72/2/3 75/2/3
f 81/2/3 78/2/3 77/2/3
f 82/1/3 79/1/3 78/1/3
f 82/2/3 78/2/3 81/2/3
f 83/2/3 80/2/3 79/2/3
f 83/1/3 79/1/3 82/1/3
f 84/2/3 80/2/3 83/2/3
f 85/2/4 86/2/4 89/2/4
f 86/1/4 87/1/4 90/1/4
f 89/2/4 86/2/4 90/2/4
f 87/2/4 88/2/4 91/2/4
f 90/1/4 87/1/4 91/1/4
f 91/2/4 88/2/4 92/2/4
f 93/2/4 94/2/4 97/2/4
f 94/1/4 95/1/4 98/1/4
f 97/2/4 94/2/4 98/2/4
f 95/2/4 96/2/4 99/2/4
f 98/1/4 95/1/4 99/1/4
f 99/2/4 96/2/4 100/2/4
f 101/2/4 102/2/4 105/2/4
f 102/1/4 103/1/4 106/1/4
f 105/2/4 102/2/4 106/2/4
f 103/2/4 104/2/4 107/2/4
f 106/1/4 103/1/4 107/1/4
f 107/2/4 104/2/4 108/2/4
f 109/2/4 110/2/4 111/2/4
f 111/2/4 110/2/4 112/2/4
f 115/2/5 114/2/5 113/2/5
f 116/2/5 114/2/5 115/2/5
f 117/2/6 118/2/6 119/2/6
f 119/2/6 118/2/6 120/2/6
f 117/2/6 119/2/6 121/2/6
f 120/2/6 118/2/6 122/2/6
f 117/2/6 121/2/6 123/2/6
f 121/2/6 122/2/6 123/2/6
f 122/2/6 118/2/6 124/2/6
f 123/2/6 122/2/6 124/2/6
f 125/2/6 126/2/6 127/2/6
f 127/2/6 126/2/6 128/2/6
f 125/2/6 127/2/6 129/2/6
f 128/2/6 126/2/6 130/2/6
f 125/2/6 129/2/6 131/2/6
f 129/2/6 130/2/6 131/2/6
f 130/2/6 126/2/6 132/2/6
f 131/2/6 130/2/6 132/2/6
f 133/2/6 134/2/6 135/2/6
f 135/2/6 134/2/6 136/2/6
f 133/2/6 135/2/6 137/2/6
f 136/2/6 134/2/6 138/2/6
f 133/2/6 137/2/6 139/2/6
f 137/2/6 138/2/6 139/2/6
f 138/2/6 134/2/6 140/2/6
f 139/2/6 138/2/6 140/2/6
f 141/2/6 142/2/6 143/2/6
f 143/2/6 142/2/6 144/2/6
